<svg width="22" height="22" viewBox="0 0 22 22" fill="none" xmlns="http://www.w3.org/2000/svg">
<path d="M3.66669 3.66663H5.15685C5.6137 3.66663 5.84213 3.66663 6.03153 3.74821C6.18924 3.81615 6.3268 3.92355 6.43095 4.06007C6.55604 4.22403 6.61144 4.44563 6.72224 4.88885L6.8887 5.5547C6.95133 5.80518 6.98264 5.93042 7.02336 6.0385C7.28741 6.73925 7.9208 7.23379 8.66467 7.32C8.7794 7.33329 8.9085 7.33329 9.16669 7.33329V7.33329" stroke="white" stroke-width="2" stroke-linecap="round"/>
<path d="M16.5 15.5834H6.92166C6.89105 15.5834 6.87575 15.5834 6.86408 15.5831C6.20123 15.5676 5.73669 14.9231 5.93162 14.2894C5.93505 14.2782 5.93989 14.2637 5.94957 14.2347V14.2347C5.96032 14.2024 5.96569 14.1863 5.97079 14.1718C6.24808 13.3807 6.98924 12.8465 7.82736 12.8336C7.84277 12.8334 7.85977 12.8334 7.89376 12.8334H12.8333" stroke="white" stroke-width="2" stroke-linecap="round" stroke-linejoin="round"/>
<path d="M13.1112 12.8334H10.0598C9.08177 12.8334 8.59277 12.8334 8.19718 12.6528C7.86194 12.4998 7.57548 12.2571 7.36943 11.9516C7.12631 11.5911 7.04592 11.1087 6.88513 10.144C6.72239 9.16761 6.64102 8.6794 6.78546 8.29986C6.90728 7.97978 7.13495 7.71102 7.43065 7.53825C7.78128 7.33337 8.27623 7.33337 9.26612 7.33337H15.0973C16.5477 7.33337 17.2729 7.33337 17.566 7.80764C17.8591 8.28191 17.5348 8.93054 16.8861 10.2278L16.6889 10.6222C16.151 11.6981 15.8821 12.236 15.3987 12.5347C14.9154 12.8334 14.314 12.8334 13.1112 12.8334Z" stroke="white" stroke-width="2" stroke-linecap="round"/>
<circle cx="15.5834" cy="18.3333" r="0.916667" fill="white"/>
<circle cx="8.24998" cy="18.3333" r="0.916667" fill="white"/>
</svg>
